<?xml version="1.0" standalone="no"?>
<!DOCTYPE svg PUBLIC "-//W3C//DTD SVG 20010904//EN"
 "http://www.w3.org/TR/2001/REC-SVG-20010904/DTD/svg10.dtd">
<svg version="1.0" xmlns="http://www.w3.org/2000/svg"
 width="3336.000000pt" height="3336.000000pt" viewBox="0 0 3336.000000 3336.000000"
 preserveAspectRatio="xMidYMid meet">
<metadata>
Created by potrace 1.14, written by Peter Selinger 2001-2017
</metadata>
<g transform="translate(0.000000,3336.000000) scale(0.100000,-0.100000)"
fill="#000000" stroke="none">
<path d="M0 16680 l0 -16680 16680 0 16680 0 0 16680 0 16680 -16680 0 -16680
0 0 -16680z m8731 5250 c19 -10 19 -35 19 -1233 0 -938 -3 -1226 -12 -1235 -9
-9 -311 -12 -1297 -12 -1181 0 -1286 1 -1303 17 -17 15 -18 67 -18 1226 0
1112 1 1212 17 1229 15 17 69 18 1295 18 863 0 1286 -3 1299 -10z m16213
-2496 c14 -14 16 -143 16 -1273 0 -1251 0 -1257 20 -1279 l21 -22 1101 0
c1011 0 1103 -1 1120 -17 17 -15 18 -67 18 -1226 0 -1112 -1 -1212 -17 -1229
-15 -17 -63 -18 -1119 -18 l-1103 0 -20 -26 -21 -27 0 -1430 c0 -1317 -1
-1432 -17 -1449 -15 -17 -69 -18 -1295 -18 -1265 0 -1278 0 -1298 20 -20 20
-20 33 -20 3995 0 3962 0 3975 20 3995 20 20 33 20 1299 20 1150 0 1281 -2
1295 -16z m-10526 -26 c9 -9 12 -909 12 -3990 0 -3922 0 -3977 -19 -3988 -14
-7 -1317 -10 -4135 -10 -4103 0 -4116 0 -4136 20 -20 20 -20 33 -20 2723 0
2602 1 2705 18 2720 17 15 127 17 1315 19 l1297 3 2 -1500 3 -1500 1525 0
1525 0 3 1518 2 1517 -1515 0 -1515 0 0 1228 c0 942 3 1231 12 1240 17 17
5609 17 5626 0z m5216 -4 c14 -14 16 -139 16 -1233 0 -933 -3 -1220 -12 -1229
-9 -9 -311 -12 -1299 -12 -1157 0 -1289 2 -1303 16 -14 14 -16 139 -16 1226 0
1113 1 1213 17 1230 15 17 69 18 1299 18 1153 0 1284 -2 1298 -16z m-2 -5201
c17 -15 18 -71 18 -1381 0 -1257 -1 -1367 -17 -1384 -15 -17 -69 -18 -1301
-18 -1182 0 -1287 1 -1304 17 -17 15 -18 71 -18 1381 0 1257 1 1367 17 1384
15 17 69 18 1301 18 1182 0 1287 -1 1304 -17z"/>
</g>
</svg>
